<svg width="22" height="22" xmlns="http://www.w3.org/2000/svg">
    <g fill="none" fill-rule="evenodd">
        <path d="M-1-1h24v24H-1z"/>
        <path d="M10.145 21.4h1.71c.181-.475.368-1.023.551-1.639.144-.485.52-.866 1.004-1.016.47-.147.926-.336 1.361-.565a1.517 1.517 0 011.43.008 22.81 22.81 0 001.549.77l1.209-1.209a22.65 22.65 0 00-.77-1.549 1.517 1.517 0 01-.008-1.43c.229-.435.418-.891.564-1.361.15-.483.532-.86 1.017-1.004.616-.183 1.166-.37 1.638-.55v-1.71a22.738 22.738 0 00-1.639-.552 1.517 1.517 0 01-1.016-1.003 8.075 8.075 0 00-.565-1.362 1.517 1.517 0 01.008-1.43c.307-.565.562-1.085.77-1.548L17.75 3.04c-.465.208-.984.463-1.55.77a1.517 1.517 0 01-1.429.008 8.074 8.074 0 00-1.361-.564 1.517 1.517 0 01-1.004-1.017A22.794 22.794 0 0011.855.6h-1.71c-.182.48-.366 1.017-.547 1.62-.14.494-.52.883-1.009 1.035-.47.147-.926.336-1.362.565a1.517 1.517 0 01-1.43-.009 22.756 22.756 0 00-1.547-.769L3.04 4.25c.208.465.463.984.77 1.55.241.445.244.98.008 1.429-.229.436-.418.891-.564 1.361-.15.484-.532.86-1.017 1.004-.616.183-1.164.37-1.638.551v1.71c.476.182 1.01.364 1.607.542.513.14.915.539 1.055 1.034.144.457.327.9.542 1.31.26.467.254 1.036-.005 1.482-.301.557-.553 1.07-.757 1.527l1.209 1.21a22.65 22.65 0 001.548-.769c.221-.12.47-.184.722-.185h0c.247 0 .49.06.708.175.436.229.891.418 1.361.564.484.15.86.532 1.004 1.017.183.616.37 1.166.551 1.638zM11 7.4h0a3.6 3.6 0 110 7.2 3.6 3.6 0 010-7.2z"
              stroke="#777" stroke-width="1.2"/>
    </g>
</svg>
