<svg width="16" height="18" xmlns="http://www.w3.org/2000/svg">
    <g fill="none" fill-rule="evenodd">
        <path d="M-4-4h24v24H-4z"/>
        <path d="M14.719 7.667c.208-.742.083-1.765-.585-2.377.129-.515.126-1.161-.141-1.734a1.895 1.895 0 00-.818-.878 2.337 2.337 0 00-.342-1.147C12.441.89 11.764.445 10.803.208c-.405-.1-1.28-.126-1.28-.126h-.02c-1.623 0-3.51.646-5.464 1.892l-2.023.299a1.21 1.21 0 00-1.05 1.191v5.838c0 .49.358.723.64.91.156.103.372.237.617.393.686.434 1.834 1.161 2.222 1.532.485.463.933 1.277 1.406 2.138.305.553.62 1.126.984 1.684.464.71 1.158 1.116 1.904 1.116.637 0 1.246-.307 1.63-.822.425-.572.533-1.33.294-2.081-.264-.83-.602-1.798-1.106-2.69-.006-.01-.011-.02 0-.04.013-.022.025-.023.037-.023h3.635c.889 0 1.592-.491 1.882-1.316.289-.82.113-1.808-.392-2.436zm-1.49 2.874H9.594c-.711 0-1.161.755-.814 1.368.425.753.736 1.588 1.034 2.525.322 1.011-.325 1.763-1.075 1.763-.4 0-.827-.213-1.154-.714-.94-1.44-1.603-3.095-2.525-3.976-.728-.696-3.203-2.117-3.203-2.205V3.464a.34.34 0 01.294-.33l2.139-.322a.349.349 0 00.135-.05C6.352 1.513 8.086.935 9.502.935c.382 0 .74.042 1.074.124 1.658.408 1.763 1.413 1.696 1.934a.335.335 0 00.253.366c.886.233.927 1.421.646 1.998-.079.16-.003.35.156.434.662.35.71 1.375.45 1.856a.321.321 0 00.087.406c.725.563.764 2.487-.635 2.487z"
              fill="#F5A623"/>
    </g>
</svg>
